<svg width="24" height="24" viewBox="0 0 24 24" fill="none" xmlns="http://www.w3.org/2000/svg">
  <path
    d="M12 3.25C8.82436 3.25 6.25 5.82436 6.25 9V12.4254C6.25 13.3517 5.95468 14.2538 5.40696 15.001L4.23808 16.5959C3.90356 17.0523 4.22964 17.7007 4.79551 17.7007H19.2045C19.7704 17.7007 20.0964 17.0523 19.7619 16.5959L18.593 15.001C18.0453 14.2538 17.75 13.3517 17.75 12.4254V9C17.75 5.82436 15.1756 3.25 12 3.25Z"
    stroke="black"
    stroke-width="1.75"
    stroke-linejoin="round"
  />
  <path d="M9.75 19.043C10.1022 20.2534 10.9837 20.95 12 20.95C13.0163 20.95 13.8978 20.2534 14.25 19.043" stroke="black" stroke-width="1.75" stroke-linecap="round"/>
</svg>
