<svg width="24" height="24" viewBox="0 0 24 24" fill="none" xmlns="http://www.w3.org/2000/svg">
  <path d="M5 12C5.01082 11.635 5.14061 11.3237 5.43265 11.0446L13.8692 2.85424C14.0964 2.61808 14.3992 2.5 14.7453 2.5C15.4484 2.5 16 3.03672 16 3.73446C16 4.07797 15.8594 4.38927 15.6214 4.63616L8.0177 12L15.6214 19.3638C15.8594 19.6 16 19.9113 16 20.2548C16 20.9633 15.4484 21.5 14.7453 21.5C14.3992 21.5 14.0964 21.3819 13.8692 21.1458L5.43265 12.9554C5.14061 12.6763 5 12.365 5 12Z" fill="black"/>
</svg>
