<svg width="24" height="24" viewBox="0 0 24 24" fill="none" xmlns="http://www.w3.org/2000/svg">
<path d="M18.7928 3.79289C19.1833 3.40237 19.8163 3.40237 20.2068 3.79289C20.5971 4.18343 20.5973 4.8165 20.2068 5.20695L13.4139 11.9999L20.2068 18.7929C20.597 19.1834 20.5972 19.8166 20.2068 20.207C19.8164 20.597 19.1832 20.597 18.7928 20.207L11.9998 13.414L5.20685 20.207C4.81642 20.597 4.18321 20.597 3.79278 20.207C3.4024 19.8166 3.40265 19.1834 3.79278 18.7929L10.5858 11.9999L3.79278 5.20695C3.40233 4.8165 3.40248 4.18343 3.79278 3.79289C4.1833 3.40237 4.81632 3.40237 5.20685 3.79289L11.9998 10.5859L18.7928 3.79289Z" fill="black"/>
</svg>
