<svg width="24" height="24" viewBox="0 0 24 24" fill="none" xmlns="http://www.w3.org/2000/svg">
  <path
    d="M12 3.25L13.0553 4.19848C13.4811 4.58115 14.0582 4.75398 14.6261 4.67002L16.0338 4.46188L16.7039 5.71659C16.9744 6.22304 17.4166 6.61625 17.9502 6.82648L19.2716 7.34717L19.1164 8.76199C19.0538 9.333 19.2202 9.90432 19.5979 10.3343L20.5336 11.4L19.5979 12.4657C19.2202 12.8957 19.0538 13.467 19.1164 14.038L19.2716 15.4528L17.9502 15.9735C17.4166 16.1838 16.9744 16.577 16.7039 17.0834L16.0338 18.3381L14.6261 18.13C14.0582 18.046 13.4811 18.2188 13.0553 18.6015L12 19.55L10.9447 18.6015C10.5189 18.2188 9.94178 18.046 9.37391 18.13L7.96624 18.3381L7.29607 17.0834C7.02561 16.577 6.58342 16.1838 6.04976 15.9735L4.72844 15.4528L4.88364 14.038C4.94625 13.467 4.77978 12.8957 4.40213 12.4657L3.46643 11.4L4.40213 10.3343C4.77978 9.90432 4.94625 9.333 4.88364 8.76199L4.72844 7.34717L6.04976 6.82648C6.58342 6.61625 7.02561 6.22304 7.29607 5.71659L7.96624 4.46188L9.37391 4.67002C9.94178 4.75398 10.5189 4.58115 10.9447 4.19848L12 3.25Z"
    stroke="black"
    stroke-width="1.75"
    stroke-linejoin="round"
  />
  <circle cx="12" cy="11.4" r="3.15" stroke="black" stroke-width="1.75" />
</svg>
