<svg xmlns="http://www.w3.org/2000/svg" width="512" height="512" viewBox="0 0 512 512" fill="none">
  <rect width="512" height="512" rx="112" fill="#f2f2f7"/>
  <path d="M4.31703 20.4484C3.85511 19.9972 3.86586 19.2023 4.31703 18.7619L10.9235 12.1447L4.31703 5.53822C3.86586 5.09779 3.85511 4.31361 4.31703 3.84095C4.77894 3.37904 5.56312 3.38978 6.01429 3.84095L12.6207 10.4474L19.2272 3.84095C19.6891 3.38978 20.4518 3.38978 20.9244 3.8517C21.3971 4.30287 21.3864 5.08705 20.9352 5.53822L14.3287 12.1447L20.9352 18.7619C21.3864 19.213 21.3864 19.9865 20.9244 20.4484C20.4625 20.921 19.6891 20.9103 19.2272 20.4591L12.6207 13.8527L6.01429 20.4591C5.56312 20.9103 4.78968 20.9103 4.31703 20.4484Z" fill="#333333" transform="translate(128 128) scale(10.6666667)"/>
</svg>
