<svg xmlns="http://www.w3.org/2000/svg" width="512" height="512" viewBox="0 0 512 512" fill="none">
  <rect width="512" height="512" rx="112" fill="#f2f2f7"/>
  <path d="M145.155 430.9C122.587 408.849 123.112 370.017 145.155 348.49L268.164 225.29L145.155 102.091C123.112 80.5642 122.587 42.2532 145.155 19.1518C167.723 -3.41629 206.034 -2.89139 228.101 19.1518L351.301 142.351L474.5 19.1518C497.068 -3.41629 534.856 -3.41629 557.954 19.6767C581.051 42.2448 580.526 80.556 558.483 102.091L435.283 225.29L558.483 348.49C580.526 370.557 580.526 408.347 557.954 430.9C535.386 453.468 497.068 452.943 474.5 430.375L351.301 307.176L228.101 430.375C206.034 452.943 168.247 452.943 145.155 430.9Z" fill="#333333" transform="scale(0.8) translate(-110 -110)"/>
</svg>
