<svg width="24" height="24" viewBox="0 0 24 24" fill="none" xmlns="http://www.w3.org/2000/svg">
  <path d="M3 12.3828C3 17.1777 6.84766 21.0254 11.6328 21.0254C16.418 21.0254 20.2559 17.1777 20.2559 12.3828C20.2559 11.9141 19.9238 11.5723 19.4453 11.5723C18.9863 11.5723 18.6836 11.9141 18.6836 12.3828C18.6836 16.3086 15.5488 19.4531 11.6328 19.4531C7.7168 19.4531 4.57227 16.3086 4.57227 12.3828C4.57227 8.4668 7.7168 5.33203 11.6328 5.33203C12.375 5.33203 13.0684 5.39062 13.6445 5.52734L10.7246 8.41797C10.5781 8.57422 10.5 8.76953 10.5 8.97461C10.5 9.42383 10.832 9.75586 11.2715 9.75586C11.5156 9.75586 11.7012 9.67773 11.8379 9.53125L15.8613 5.48828C16.0371 5.32227 16.1055 5.12695 16.1055 4.90234C16.1055 4.6875 16.0176 4.47266 15.8613 4.31641L11.8379 0.234375C11.7012 0.078125 11.5059 0 11.2715 0C10.832 0 10.5 0.351562 10.5 0.800781C10.5 1.00586 10.5781 1.20117 10.7148 1.35742L13.3125 3.92578C12.8047 3.82812 12.2285 3.75977 11.6328 3.75977C6.84766 3.75977 3 7.59766 3 12.3828Z" fill="black" fill-opacity="0.85"/>
</svg>
